<svg width="162" height="170" viewBox="0 0 162 170" fill="none" xmlns="http://www.w3.org/2000/svg">
<path d="M56.3956 159.573V133.583C56.3956 126.948 61.8135 121.57 68.4967 121.57H92.9272C96.1366 121.57 99.2146 122.835 101.484 125.088C103.753 127.341 105.028 130.397 105.028 133.583V159.573C105.008 162.332 106.098 164.984 108.055 166.942C110.013 168.899 112.676 170 115.455 170H132.123C139.907 170.02 147.379 166.964 152.891 161.507C158.402 156.05 161.5 148.639 161.5 140.912V66.8683C161.5 60.6259 158.713 54.7047 153.889 50.6997L97.1892 5.74489C87.3261 -2.13723 73.1945 -1.88273 63.6258 6.34932L8.2196 50.6997C3.1683 54.5866 0.149194 60.5254 0 66.8683V140.836C0 156.943 13.1527 170 29.3775 170H45.6645C51.4354 170 56.1255 165.378 56.1673 159.649L56.3956 159.573Z" fill="#AF7032"/>
</svg>
