<svg width="171" height="162" viewBox="0 0 171 162" fill="none" xmlns="http://www.w3.org/2000/svg">
<path fill-rule="evenodd" clip-rule="evenodd" d="M117.725 0.00135721C123.089 0.00135721 128.444 0.757857 133.535 2.46636C164.909 12.6664 176.214 47.0914 166.77 77.1814C161.415 92.5579 152.66 106.591 141.194 118.058C124.78 133.953 106.769 148.063 87.3801 160.218L85.2551 161.501L83.0451 160.133C63.5886 148.063 45.4751 133.953 28.9086 117.973C17.5186 106.506 8.75514 92.5579 3.31514 77.1814C-6.28986 47.0914 5.01514 12.6664 36.7286 2.28786C39.1936 1.43786 41.7351 0.842857 44.2851 0.511357H45.3051C47.6936 0.162857 50.0651 0.00135721 52.4451 0.00135721H53.3801C58.7351 0.162857 63.9201 1.09786 68.9436 2.80636H69.4451C69.7851 2.96786 70.0401 3.14636 70.2101 3.30786C72.0886 3.91136 73.8651 4.59136 75.5651 5.52636L78.7951 6.97136C79.5756 7.38762 80.4517 8.02366 81.2088 8.57336C81.6885 8.92164 82.1205 9.23526 82.4501 9.43636C82.5888 9.51819 82.7298 9.60047 82.8719 9.68343C83.6008 10.1089 84.36 10.5521 85.0001 11.0429C94.4436 3.82636 105.91 -0.0836428 117.725 0.00135721ZM140.335 61.2014C143.82 61.1079 146.795 58.3114 147.05 54.7329V53.7214C147.305 41.8129 140.089 31.0264 129.115 26.8614C125.63 25.6629 121.805 27.5414 120.53 31.1114C119.34 34.6814 121.21 38.5914 124.78 39.8579C130.229 41.8979 133.875 47.2614 133.875 53.2029V53.4664C133.714 55.4129 134.3 57.2914 135.49 58.7364C136.68 60.1814 138.465 61.0229 140.335 61.2014Z" fill="#AF7032"/>
</svg>
