<svg width="153" height="170" viewBox="0 0 153 170" fill="none" xmlns="http://www.w3.org/2000/svg">
<path fill-rule="evenodd" clip-rule="evenodd" d="M40.885 0H112.123C138.38 0 153 15.13 153 41.055V128.86C153 155.21 138.38 170 112.123 170H40.885C15.045 170 0 155.21 0 128.86V41.055C0 15.13 15.045 0 40.885 0ZM43.18 39.61V39.525H68.5865C72.25 39.525 75.225 42.5 75.225 46.1465C75.225 49.895 72.25 52.87 68.5865 52.87H43.18C39.5165 52.87 36.55 49.895 36.55 46.24C36.55 42.585 39.5165 39.61 43.18 39.61ZM43.18 91.29H109.82C113.475 91.29 116.45 88.315 116.45 84.66C116.45 81.005 113.475 78.0215 109.82 78.0215H43.18C39.5165 78.0215 36.55 81.005 36.55 84.66C36.55 88.315 39.5165 91.29 43.18 91.29ZM43.18 130.135H109.82C113.212 129.795 115.77 126.897 115.77 123.505C115.77 120.02 113.212 117.13 109.82 116.79H43.18C40.63 116.535 38.165 117.725 36.805 119.935C35.445 122.06 35.445 124.865 36.805 127.075C38.165 129.2 40.63 130.475 43.18 130.135Z" fill="#AF7032"/>
</svg>
