<svg width="170" height="170" viewBox="0 0 170 170" fill="none" xmlns="http://www.w3.org/2000/svg">
<path fill-rule="evenodd" clip-rule="evenodd" d="M21.59 0H50.32C62.305 0 71.91 9.775 71.91 21.7685V50.745C71.91 62.815 62.305 72.505 50.32 72.505H21.59C9.69 72.505 0 62.815 0 50.745V21.7685C0 9.775 9.69 0 21.59 0ZM21.59 97.4924H50.32C62.305 97.4924 71.91 107.191 71.91 119.261V148.237C71.91 160.222 62.305 169.997 50.32 169.997H21.59C9.69 169.997 0 160.222 0 148.237V119.261C0 107.191 9.69 97.4924 21.59 97.4924ZM148.411 0H119.681C107.696 0 98.0909 9.775 98.0909 21.7685V50.745C98.0909 62.815 107.696 72.505 119.681 72.505H148.411C160.311 72.505 170.001 62.815 170.001 50.745V21.7685C170.001 9.775 160.311 0 148.411 0ZM119.681 97.4924H148.411C160.311 97.4924 170.001 107.191 170.001 119.261V148.237C170.001 160.222 160.311 169.997 148.411 169.997H119.681C107.696 169.997 98.0909 160.222 98.0909 148.237V119.261C98.0909 107.191 107.696 97.4924 119.681 97.4924Z" fill="#AF7032"/>
</svg>
