<svg width="170" height="170" viewBox="0 0 170 170" fill="none" xmlns="http://www.w3.org/2000/svg">
<path fill-rule="evenodd" clip-rule="evenodd" d="M0 85.1277C0 40.3505 35.785 0 85.17 0C133.45 0 170 39.5844 170 84.8723C170 137.396 127.16 170 85 170C71.06 170 55.59 166.254 43.18 158.933C38.845 156.294 35.19 154.337 30.515 155.869L13.345 160.976C9.01 162.339 5.1 158.933 6.375 154.337L12.07 135.268C13.005 132.629 12.835 129.82 11.475 127.606C4.165 114.156 0 99.4291 0 85.1277ZM73.95 85.1277C73.95 91.1717 78.795 96.024 84.83 96.1092C90.865 96.1092 95.71 91.1717 95.71 85.2128C95.71 79.1687 90.865 74.3165 84.83 74.3165C78.88 74.2313 73.95 79.1687 73.95 85.1277ZM113.135 85.2128C113.135 91.1717 117.98 96.1092 124.015 96.1092C130.05 96.1092 134.895 91.1717 134.895 85.2128C134.895 79.1687 130.05 74.3165 124.015 74.3165C117.98 74.3165 113.135 79.1687 113.135 85.2128ZM45.645 96.1092C39.695 96.1092 34.765 91.1718 34.765 85.2128C34.765 79.1688 39.61 74.3165 45.645 74.3165C51.68 74.3165 56.525 79.1688 56.525 85.2128C56.525 91.1718 51.68 96.024 45.645 96.1092Z" fill="#AF7032"/>
</svg>
